# xmcd
#
# Track frame offsets:
#        150
#        19576
#        41786
#        59422
#        79732
#        103142
#        124421
#        151098
#        172263
#        191849
#
# Disc length: 2840 seconds
#
# Revision: 0
# Processed by: cddbd v1.5.1PL2 Copyright (c) Steve Scherf et al.
# Submitted via: ExactAudioCopy v0.95b3
#
DISCID=890b160a
DTITLE=Rick James - Wonderful
DYEAR=1988
DGENRE=Funk
TTITLE0=Wonderful
TTITLE1=Judy
TTITLE2=Loosey's Rap
TTITLE3=So Tight
TTITLE4=Sexual Luv Affair
TTITLE5=Love's Fire
TTITLE6=I Believe In U
TTITLE7=In The Girls' Room
TTITLE8=Hypnotize
TTITLE9=Sherry Baby
EXTD=
EXTT0=
EXTT1=
EXTT2=
EXTT3=
EXTT4=
EXTT5=
EXTT6=
EXTT7=
EXTT8=
EXTT9=
PLAYORDER=
